<svg width="122" height="38" viewBox="0 0 122 38" fill="none" xmlns="http://www.w3.org/2000/svg">
<path fill-rule="evenodd" clip-rule="evenodd" d="M1.60757 13.9029C4.20154 3.96693 14.3586 -1.98558 24.2953 0.606867C29.071 1.84878 33.1566 4.93929 35.6511 9.19683C38.1455 13.4544 38.8439 18.5293 37.5923 23.3023C34.9955 33.2375 24.8366 39.1871 14.9007 36.5918C4.96484 33.9965 -0.986402 23.8388 1.60757 13.9029ZM24.9071 9.30268C23.9134 9.39539 23.0851 10.1023 22.8373 11.069L22.4895 12.6404L22.0355 14.2562C21.7649 15.091 21.9807 16.0071 22.5955 16.6333C23.2104 17.2596 24.1224 17.4921 24.9621 17.2368C25.8017 16.9815 26.4299 16.2806 26.592 15.4181L26.9646 13.7924L27.4061 12.2309C27.654 11.2472 27.2408 10.2157 26.3823 9.67518C26.4616 8.7755 26.5799 7.08345 26.6178 6.54202L26.6178 6.5419V6.54186L26.629 6.38187C26.6414 6.21166 26.6019 6.11051 26.5032 6.08584C26.4045 6.06118 26.3207 6.15985 26.2565 6.30787C26.2352 6.35055 26.074 6.71055 25.8624 7.18334L25.8618 7.18449C25.5598 7.85929 25.155 8.76333 24.9071 9.30268ZM15.8311 9.30268C16.0717 8.33334 16.9031 7.62498 17.8984 7.54131L19.2479 4.53417C19.312 4.38615 19.3959 4.28748 19.4945 4.30968C19.5932 4.33188 19.6302 4.43796 19.6228 4.60817C19.6154 4.77839 19.4625 6.87772 19.3761 7.90148C20.2305 8.44428 20.6426 9.47209 20.3999 10.4547L19.9559 12.0163L19.5883 13.6419C19.2715 14.9042 17.9914 15.6707 16.7291 15.354C15.4667 15.0372 14.7002 13.7571 15.017 12.4948L15.4709 10.8667L15.8311 9.30268ZM7.77641 16.7724L7.32002 18.3858L7.30768 18.3883C7.07739 19.213 7.31224 20.0977 7.92122 20.6997C8.5302 21.3017 9.41763 21.5263 10.2397 21.2865C11.0617 21.0467 11.6892 20.3802 11.879 19.5452L12.249 17.922L12.6906 16.358C12.941 15.3754 12.5283 14.3436 11.6693 13.8048C11.6886 13.551 11.7133 13.2315 11.7395 12.8918L11.7401 12.8839L11.7403 12.8812C11.821 11.8365 11.916 10.6061 11.916 10.5115C11.916 10.3412 11.8889 10.2426 11.7902 10.2154C11.6915 10.1883 11.6076 10.287 11.5435 10.435C11.513 10.4975 11.1956 11.2048 10.8541 11.9656L10.8539 11.9662C10.6159 12.4965 10.3663 13.0528 10.194 13.4347C9.20115 13.5253 8.37251 14.2305 8.12425 15.1961L7.77641 16.7724ZM16.47 30.9448C11.7828 29.7113 8.19333 27.9179 8.778 25.71C9.36267 23.5021 14.119 20.7762 18.8063 22.0097C23.4935 23.2431 26.3281 27.9499 25.7508 30.1504C25.1735 32.3509 21.1696 32.1733 16.47 30.9374V30.9448ZM27.7293 25.9764C28.9944 26.2946 30.2778 25.527 30.5959 24.2619L30.9512 22.6387L31.3928 21.0722C31.6338 20.0927 31.2266 19.0682 30.3788 18.5215C30.4277 17.8437 30.5078 16.6968 30.5601 15.9477C30.587 15.5626 30.6066 15.2827 30.6107 15.2257C30.6231 15.0579 30.5861 14.9568 30.4849 14.9321C30.3838 14.9075 30.3098 15.0086 30.2382 15.1542C30.1938 15.2578 29.3082 17.2214 28.8863 18.1514C27.8904 18.2427 27.0606 18.9528 26.8165 19.9227L26.4687 21.4891L26.0148 23.1099C25.6966 24.3749 26.4643 25.6583 27.7293 25.9764Z" fill="black"/>
<path fill-rule="evenodd" clip-rule="evenodd" d="M52.7876 25.2L47.6839 18.1542V25.2H45.4V14.4077H47.7477L52.7161 21.1914V14.4H55V25.1923L52.7876 25.2Z" fill="black"/>
<path fill-rule="evenodd" clip-rule="evenodd" d="M61.6086 14.4C58.4765 14.4 56.2 16.6529 56.2 19.8C56.2 22.9471 58.4937 25.2 61.6086 25.2C64.7235 25.2 67 22.9471 67 19.8C67 16.6529 64.7407 14.4 61.6086 14.4ZM61.6061 16.3697C63.5065 16.3697 64.7358 17.8427 64.7358 19.8C64.7358 21.7399 63.5213 23.2278 61.6061 23.2278C59.691 23.2278 58.4618 21.7573 58.4618 19.8C58.4618 17.8427 59.7058 16.3697 61.6061 16.3697Z" fill="black"/>
<path fill-rule="evenodd" clip-rule="evenodd" d="M71.8 25.2V23.3396L77.009 16.4248H71.8V14.4H80.0845V16.245L74.8755 23.1649H80.2V25.1897L71.8 25.2Z" fill="black"/>
<path fill-rule="evenodd" clip-rule="evenodd" d="M81.4 25.2V14.4H88.6V16.4263H83.566V18.6943H88.4935V20.718H83.566V23.1634H88.6V25.1897L81.4 25.2Z" fill="black"/>
<path fill-rule="evenodd" clip-rule="evenodd" d="M91 25.1923V14.4H96.3027C98.2205 14.4 99.2034 15.7105 99.2034 17.152C99.2034 18.4959 98.4195 19.4184 97.4654 19.6291C98.5538 19.809 99.4 20.9268 99.4 22.2707C99.4 23.9049 98.4027 25.2 96.4682 25.2L91 25.1923ZM97.0099 17.5478C97.0099 16.8848 96.5545 16.4171 95.8305 16.4171H93.1455V18.6835H95.8353C96.5592 18.6835 97.0099 18.2467 97.0099 17.5478ZM95.9192 20.7058C96.751 20.7058 97.2041 21.2582 97.2041 21.9392H97.2089C97.2089 22.7152 96.7247 23.1572 95.924 23.1572H93.1455V20.7058H95.9192Z" fill="black"/>
<path fill-rule="evenodd" clip-rule="evenodd" d="M104.422 21.3575L106.455 25.1923L109 25.2L106.657 21.0877C107.773 20.8152 108.941 19.7769 108.941 17.8826C108.941 15.8727 107.605 14.4 105.447 14.4H100.6V25.1949H102.805V21.3575H104.422ZM105.134 16.415C106.004 16.415 106.671 16.9625 106.671 17.8544C106.671 18.7873 106.004 19.3297 105.134 19.3297H102.805V16.415H105.134Z" fill="black"/>
<path fill-rule="evenodd" clip-rule="evenodd" d="M117.834 23.3691L118.488 25.2H121L116.987 14.4H114.21L110.2 25.2H112.709L113.376 23.3691H117.834ZM113.978 21.3429L115.6 16.6911L117.222 21.3429H113.978Z" fill="black"/>
</svg>
